<?xml version="1.0" encoding="UTF-8"?>
<svg width="425px" height="170px" viewBox="0 0 340 170" version="1.1" xmlns="http://www.w3.org/2000/svg" xmlns:xlink="http://www.w3.org/1999/xlink">
    <title>Group 2</title>
    <g id="Page-1" stroke="none" stroke-width="1" fill="none" fill-rule="evenodd">
        <g id="Group-2" fill="#000000">
            <path d="M0,170 C46.9442037,170 85,131.944204 85,85 C85,38.0557963 46.9442037,0 0,0 C0,85 0,85 0,170 Z" id="Oval"></path>
            <path d="M85,170 C131.944204,170 170,131.944204 170,85 C170,38.0557963 131.944204,0 85,0 C85,85 85,85 85,170 Z" id="Oval-Copy"></path>
            <path d="M170,170 C216.944204,170 255,131.944204 255,85 C255,38.0557963 216.944204,0 170,0 C170,85 170,85 170,170 Z" id="Oval-Copy-2"></path>
            <path d="M255,170 C301.944204,170 340,131.944204 340,85 C340,38.0557963 301.944204,0 255,0 C255,85 255,85 255,170 Z" id="Oval-Copy-3"></path>
            <path d="M340,170 C386.944204,170 425,131.944204 425,85 C425,38.0557963 386.944204,0 340,0 C340,85 340,85 340,170 Z" id="Oval-Copy-4"></path>
            <animateTransform
              attributeName="transform"
              attributeType="XML"
              type="translate"
              values="0;
                      0;
                      -85;"
              keyTimes="0; 0.95; 1"
              dur="6s"
              repeatCount="indefinite"/>
        </g>
    </g>
</svg>